<?xml version="1.0" encoding="UTF-8" standalone="no"?>
<svg
   xmlns:dc="http://purl.org/dc/elements/1.1/"
   xmlns:cc="http://creativecommons.org/ns#"
   xmlns:rdf="http://www.w3.org/1999/02/22-rdf-syntax-ns#"
   xmlns:svg="http://www.w3.org/2000/svg"
   xmlns="http://www.w3.org/2000/svg"
   xmlns:sodipodi="http://sodipodi.sourceforge.net/DTD/sodipodi-0.dtd"
   xmlns:inkscape="http://www.inkscape.org/namespaces/inkscape"
   width="24"
   height="24"
   fill-rule="evenodd"
   clip-rule="evenodd"
   version="1.1"
   id="svg4625"
   sodipodi:docname="icon_eraser.svg"
   inkscape:version="0.92.4 (5da689c313, 2019-01-14)">
  <metadata
     id="metadata4631">
    <rdf:RDF>
      <cc:Work
         rdf:about="">
        <dc:format>image/svg+xml</dc:format>
        <dc:type
           rdf:resource="http://purl.org/dc/dcmitype/StillImage" />
      </cc:Work>
    </rdf:RDF>
  </metadata>
  <defs
     id="defs4629" />
  <sodipodi:namedview
     pagecolor="#ffffff"
     bordercolor="#666666"
     borderopacity="1"
     objecttolerance="10"
     gridtolerance="10"
     guidetolerance="10"
     inkscape:pageopacity="0"
     inkscape:pageshadow="2"
     inkscape:window-width="1920"
     inkscape:window-height="1017"
     id="namedview4627"
     showgrid="false"
     inkscape:zoom="27.812867"
     inkscape:cx="8.5122836"
     inkscape:cy="14.757011"
     inkscape:window-x="-8"
     inkscape:window-y="-8"
     inkscape:window-maximized="1"
     inkscape:current-layer="svg4625" />
  <path
     d="M5.662 23l-5.369-5.365c-.195-.195-.293-.45-.293-.707 0-.256.098-.512.293-.707l14.929-14.928c.195-.194.451-.293.707-.293.255 0 .512.099.707.293l7.071 7.073c.196.195.293.451.293.708 0 .256-.097.511-.293.707l-11.216 11.219h5.514v2h-12.343zm3.657-2l-5.486-5.486-1.419 1.414 4.076 4.072h2.829zm.456-11.429l-4.528 4.528 5.658 5.659 4.527-4.53-5.657-5.657z"
     id="path4623"
     style="fill:#0c61eb;fill-opacity:1" />
</svg>
