<?xml version="1.0" encoding="UTF-8" standalone="no"?>
<svg
   xmlns:dc="http://purl.org/dc/elements/1.1/"
   xmlns:cc="http://creativecommons.org/ns#"
   xmlns:rdf="http://www.w3.org/1999/02/22-rdf-syntax-ns#"
   xmlns:svg="http://www.w3.org/2000/svg"
   xmlns="http://www.w3.org/2000/svg"
   xmlns:sodipodi="http://sodipodi.sourceforge.net/DTD/sodipodi-0.dtd"
   xmlns:inkscape="http://www.inkscape.org/namespaces/inkscape"
   width="24"
   height="24"
   viewBox="0 0 24 24"
   version="1.1"
   id="svg3725"
   sodipodi:docname="icon_turn_over.svg"
   inkscape:version="0.92.4 (5da689c313, 2019-01-14)">
  <metadata
     id="metadata3731">
    <rdf:RDF>
      <cc:Work
         rdf:about="">
        <dc:format>image/svg+xml</dc:format>
        <dc:type
           rdf:resource="http://purl.org/dc/dcmitype/StillImage" />
      </cc:Work>
    </rdf:RDF>
  </metadata>
  <defs
     id="defs3729" />
  <sodipodi:namedview
     pagecolor="#ffffff"
     bordercolor="#666666"
     borderopacity="1"
     objecttolerance="10"
     gridtolerance="10"
     guidetolerance="10"
     inkscape:pageopacity="0"
     inkscape:pageshadow="2"
     inkscape:window-width="1920"
     inkscape:window-height="1017"
     id="namedview3727"
     showgrid="false"
     inkscape:zoom="35.333333"
     inkscape:cx="7.4009434"
     inkscape:cy="12"
     inkscape:window-x="-8"
     inkscape:window-y="-8"
     inkscape:window-maximized="1"
     inkscape:current-layer="svg3725" />
  <path
     d="M23 12c0 1.042-.154 2.045-.425 3h-2.101c.335-.94.526-1.947.526-3 0-4.962-4.037-9-9-9-1.706 0-3.296.484-4.655 1.314l1.858 2.686h-6.994l2.152-7 1.849 2.673c1.684-1.049 3.659-1.673 5.79-1.673 6.074 0 11 4.925 11 11zm-6.354 7.692c-1.357.826-2.944 1.308-4.646 1.308-4.962 0-9-4.038-9-9 0-1.053.191-2.06.525-3h-2.1c-.271.955-.425 1.958-.425 3 0 6.075 4.925 11 11 11 2.127 0 4.099-.621 5.78-1.667l1.853 2.667 2.152-6.989h-6.994l1.855 2.681z"
     id="path3723"
     style="fill:#0c5eeb;fill-opacity:1" />
</svg>
